<svg xmlns="http://www.w3.org/2000/svg" version="1.1" xmlns:xlink="http://www.w3.org/1999/xlink" xmlns:svgjs="http://svgjs.dev/svgjs" width="128" height="128" viewBox="0 0 128 128"><g transform="matrix(0.36395759717314485,0,0,0.36395759717314485,40.58235891068672,12.33387096774193)"><svg viewBox="0 0 70 155" data-background-color="#ffffff" preserveAspectRatio="xMidYMid meet" height="283" width="128" xmlns="http://www.w3.org/2000/svg" xmlns:xlink="http://www.w3.org/1999/xlink"><g id="tight-bounds" transform="matrix(1,0,0,1,0.1868530020703929,0.25)"><svg viewBox="0 0 69.62629399585921 154.5" height="154.5" width="69.62629399585921"><g><svg viewBox="0 0 69.62629399585921 154.5" height="154.5" width="69.62629399585921"><g><svg viewBox="0 0 69.62629399585921 154.5" height="154.5" width="69.62629399585921"><g><svg viewBox="0 0 69.62629399585921 154.5" height="154.5" width="69.62629399585921"><g><svg viewBox="0 0 69.62629399585921 154.5" height="154.5" width="69.62629399585921"><g transform="matrix(1,0,0,1,0,0)"><svg width="69.62629399585921" viewBox="1.5 -35.83 16.32 36.23" height="154.5" data-palette-color="#636365"><path d="M17.82-35.83L17.82-12.38Q17.82-9.38 17.09-7 16.35-4.63 14.91-2.99 13.48-1.35 11.38-0.48 9.28 0.4 6.55 0.4L6.55 0.4Q4.13 0.4 1.5-0.3L1.5-0.3Q1.55-1.03 1.63-1.74 1.7-2.45 1.78-3.15L1.78-3.15Q1.83-3.58 2.09-3.84 2.35-4.1 2.88-4.1L2.88-4.1Q3.33-4.1 4.08-3.88 4.83-3.65 6.08-3.65L6.08-3.65Q7.73-3.65 9.01-4.15 10.3-4.65 11.19-5.7 12.08-6.75 12.54-8.39 13-10.03 13-12.28L13-12.28 13-35.83 17.82-35.83Z" opacity="1" transform="matrix(1,0,0,1,0,0)" fill="#000000" class="undefined-text-0" data-fill-palette-color="primary" id="text-0"></path></svg></g></svg></g></svg></g></svg></g><g></g></svg></g><defs></defs></svg><rect width="69.62629399585921" height="154.5" fill="none" stroke="none" visibility="hidden"></rect></g></svg></g></svg>